<?xml version="1.0" encoding="iso-8859-1"?>
<!-- Generator: Adobe Illustrator 16.0.0, SVG Export Plug-In . SVG Version: 6.00 Build 0)  -->
<!DOCTYPE svg PUBLIC "-//W3C//DTD SVG 1.1//EN" "http://www.w3.org/Graphics/SVG/1.1/DTD/svg11.dtd">
<svg version="1.1" id="Layer_1" xmlns="http://www.w3.org/2000/svg" xmlns:xlink="http://www.w3.org/1999/xlink" x="0px" y="0px"
	 width="500px" height="500px" viewBox="0 0 500 500" style="enable-background:new 0 0 500 500;" xml:space="preserve">
<g>
	<path d="M494.666,81.896c-2.775-4.641-7.351-7.895-12.631-8.957L201.851,5.392c-9.234-1.79-18.344,3.311-21.54,12.134
		L73.513,288.841l35.654,12.993l101.21-257.977l243.447,62.123c-15.204,47.134-51.383,145.512-86.064,237.112
		c-30.236,79.921-47.635,107.289-80.705,112.878c-0.039-0.039-0.075-0.077-0.075-0.135c-67.586,9.474-66.373-76.688-66.373-76.688
		L4.756,291.956c-15.339,97.224,59.367,120.608,59.367,120.608l158.033,71.75c0.038,0.02,24.708,11.771,51.521,10.563
		c72.323-1.703,97.739-54.218,129.585-138.352c46.008-121.594,92.705-257.838,93.164-259.283
		C498.072,92.087,497.422,86.527,494.666,81.896z"/>
	<path d="M366.952,191.31c1.646,0.45,3.35,0.689,5.033,0.689c8.324,0,15.94-5.55,18.274-13.971
		c2.774-10.115-3.216-20.564-13.317-23.32l-82.233-25.381c-9.989-2.765-20.555,3.177-23.311,13.282
		c-2.757,10.114,3.178,20.564,13.318,23.33L366.952,191.31z"/>
	<path d="M238.464,218.619c-3.296,9.962,2.055,20.69,11.989,24.015l81.802,29.232c1.986,0.661,3.938,0.958,5.907,0.969
		c7.979,0.042,15.453-4.991,18.117-12.96c3.305-9.935-2.036-20.679-12.01-24.002l-81.771-29.213
		C252.505,203.353,241.799,208.703,238.464,218.619z"/>
	<path d="M231.267,285.865c-9.952-3.33-20.698,2.104-23.952,12.096c-3.272,9.914,2.182,20.67,12.134,23.923l81.973,29.111
		c1.975,0.669,3.942,0.956,5.936,0.956c7.961,0,15.387-5.07,18.01-13.033c3.271-9.971-2.163-20.707-12.115-23.961L231.267,285.865z"
		/>
	<path d="M228.232,107.197c11.617,0,21.043,9.167,21.043,20.459c0,11.301-9.426,20.458-21.043,20.458
		c-11.626,0-21.052-9.158-21.052-20.458C207.181,116.364,216.606,107.197,228.232,107.197z"/>
	<path d="M198.463,183.252c11.627,0,21.043,9.158,21.043,20.449c0,11.282-9.416,20.439-21.043,20.439
		c-11.626,0-21.052-9.157-21.052-20.439C177.411,192.411,186.837,183.252,198.463,183.252z"/>
	<path d="M166.713,261.719c11.627,0,21.052,9.168,21.052,20.479c0,11.29-9.425,20.438-21.052,20.438
		c-11.626,0-21.052-9.146-21.052-20.438C145.661,270.887,155.087,261.719,166.713,261.719z"/>
</g>
</svg>
