<?xml version="1.0" encoding="utf-8"?>
<!-- Generator: Adobe Illustrator 16.0.4, SVG Export Plug-In . SVG Version: 6.00 Build 0)  -->
<!DOCTYPE svg PUBLIC "-//W3C//DTD SVG 1.1//EN" "http://www.w3.org/Graphics/SVG/1.1/DTD/svg11.dtd">
<svg version="1.1" id="Layer_1" xmlns="http://www.w3.org/2000/svg" xmlns:xlink="http://www.w3.org/1999/xlink" x="0px" y="0px"
	 width="32px" height="32px" viewBox="0 0 32 32" enable-background="new 0 0 32 32" xml:space="preserve">
<g>
	<path fill="#282828" d="M24.688,10.162c-0.289-0.114-0.603-0.146-0.908-0.091l-1.401,0.249c-0.38,0.067-0.655,0.399-0.653,0.786
		l0.108,12.01c0,0,0.022,0.294-0.226,0.796l5.062,2.604l-10.361,0.047c-0.384,0-0.695,0.313-0.695,0.697v0.963
		c0,0.387,0.313,0.698,0.699,0.698h13.382c0.316,0,0.627-0.097,0.888-0.276l0.967-0.668c0.282-0.194,0.45-0.515,0.45-0.855V14.043
		c0-0.602-0.368-1.143-0.928-1.364L24.688,10.162z M29.162,25.33c0,0.209-0.107,0.404-0.285,0.518
		c-0.177,0.111-0.398,0.125-0.589,0.035L23.264,23.5c-0.212-0.1-0.348-0.312-0.35-0.545l-0.116-10.061
		c-0.002-0.206,0.099-0.398,0.269-0.514c0.17-0.115,0.388-0.137,0.578-0.059l5.142,2.131c0.229,0.095,0.377,0.317,0.377,0.565
		L29.162,25.33L29.162,25.33z"/>
	<circle fill="#282828" cx="12.058" cy="7.679" r="5.367"/>
	<path fill="#282828" d="M20.938,21.766c-0.397-1.107-1.479-1.703-2.728-1.287c-2.28,0.758-5.313,1.504-6.988,0.211
		c-0.938-0.725-1.774-2.222-1.5-3.116c1.327-3.19-2.023-7.182-4.718-7.168C2.606,10.416,0,13.292,0,13.292V32l3.308,0.025
		c0.628-3.618,1.599-6.272,2.494-8.104c-2.135-4.108-1.45-7.437-1.446-7.516c0,0,0.652,5.726,5.51,8.431
		c1.098,0.611,2.423,0.835,3.884,0.835c1.739-0.001,3.709-0.394,5.9-1.178C20.758,24.096,21.334,22.875,20.938,21.766z"/>
	<path fill="#282828" d="M21.816,7.329c-0.229,0.183-0.266,0.515-0.084,0.745c0.105,0.133,0.262,0.203,0.418,0.203
		c0.117,0,0.231-0.038,0.33-0.114c0.064-0.049,1.601-1.216,3.707-0.112c0.261,0.138,0.584,0.036,0.721-0.225
		c0.136-0.261,0.035-0.583-0.227-0.72C23.943,5.672,21.902,7.26,21.816,7.329z"/>
	<path fill="#282828" d="M28.084,5.5c0.137-0.261,0.036-0.583-0.225-0.72c-4.524-2.371-7.865,0.231-8.004,0.343
		c-0.229,0.184-0.269,0.52-0.084,0.749c0.104,0.132,0.261,0.2,0.418,0.2c0.115,0,0.233-0.038,0.332-0.117
		c0.028-0.024,2.929-2.284,6.842-0.231C27.625,5.861,27.947,5.76,28.084,5.5z"/>
	<path fill="#282828" d="M18.609,3.708c0.117,0,0.233-0.038,0.332-0.115c0.174-0.139,4.322-3.334,10.002-0.354
		c0.261,0.135,0.582,0.036,0.72-0.225c0.137-0.26,0.036-0.583-0.224-0.72c-6.316-3.312-10.967,0.309-11.164,0.465
		c-0.229,0.183-0.267,0.518-0.084,0.748C18.297,3.639,18.453,3.708,18.609,3.708z"/>
</g>
</svg>
